<svg width="19" height="17" viewBox="0 0 19 17" fill="none" xmlns="http://www.w3.org/2000/svg">
<path fill-rule="evenodd" clip-rule="evenodd" d="M18 5.88971C18 8.05147 16.8303 9.82721 15.3486 11.2941C13.789 12.6838 11.7615 13.8419 9.81193 14.8456L9.5 15L9.18807 14.8456C7.23853 13.8419 5.21101 12.761 3.65138 11.2941C2.09174 9.82721 1 8.05147 1 5.88971C1 4.42279 1.54587 3.26471 2.32569 2.41544C3.1055 1.56618 4.19725 1.18015 5.28899 1.02574C6.84862 0.871324 8.56422 1.41176 9.57798 2.64706C10.4358 1.41176 12.1514 0.871324 13.711 1.02574C14.8028 1.18015 15.8945 1.56618 16.6743 2.41544C17.4541 3.26471 18 4.42279 18 5.88971Z" stroke="#495889" strokeWidth="2" strokeMiterlimit="10"/>
</svg>
