<svg width="72" height="28" viewBox="0 0 72 28" fill="none" xmlns="http://www.w3.org/2000/svg">
<path d="M7.94244 27.0803C5.7973 26.9937 4.04172 26.3943 2.66935 25.282C2.40761 25.0696 1.78334 24.4324 1.57411 24.1634C1.01747 23.4496 0.639302 22.7545 0.386574 21.9836C-0.390176 19.6104 0.01 16.496 1.52955 13.0778C2.83112 10.1518 4.83942 7.2498 8.34341 3.23035C8.85921 2.63887 10.3965 0.909058 10.4061 0.909058C10.4101 0.909058 10.3265 1.05733 10.221 1.23781C9.30978 2.79445 8.53038 4.6287 8.10554 6.21592C7.42346 8.76396 7.50567 10.9497 8.3466 12.6451C8.92657 13.813 9.92105 14.8247 11.0391 15.3839C12.9967 16.3626 15.8627 16.4435 19.363 15.6207C19.604 15.5639 31.5449 12.3296 45.8987 8.43331C60.252 4.53698 71.9981 1.35118 72 1.35416C72.004 1.35741 38.6523 15.9191 21.3389 23.4732C18.5968 24.6691 17.8636 24.9711 16.575 25.433C13.2797 26.6135 10.3281 27.1769 7.94244 27.0803Z" fill="#283664"/>
</svg>
