<svg width="408" height="40" viewBox="0 0 408 40" fill="none" xmlns="http://www.w3.org/2000/svg">
<path d="M25.016 3.4V1.4H23.016V3.4H25.016ZM25.016 21.304L23.4758 22.5799L27.016 26.8533V21.304H25.016ZM10.184 3.4L11.7242 2.1241L11.1243 1.4H10.184V3.4ZM2.36 3.4V1.4H0.36V3.4H2.36ZM2.36 37H0.36V39H2.36V37ZM11.672 37V39H13.672V37H11.672ZM11.672 19.096L13.2122 17.8201L9.672 13.5467V19.096H11.672ZM26.504 37L24.9638 38.2759L25.5637 39H26.504V37ZM34.328 37V39H36.328V37H34.328ZM34.328 3.4H36.328V1.4H34.328V3.4ZM23.016 3.4V21.304H27.016V3.4H23.016ZM26.5562 20.0281L11.7242 2.1241L8.64384 4.67589L23.4758 22.5799L26.5562 20.0281ZM10.184 1.4H2.36V5.4H10.184V1.4ZM0.36 3.4V37H4.36V3.4H0.36ZM2.36 39H11.672V35H2.36V39ZM13.672 37V19.096H9.672V37H13.672ZM10.1318 20.3719L24.9638 38.2759L28.0442 35.7241L13.2122 17.8201L10.1318 20.3719ZM26.504 39H34.328V35H26.504V39ZM36.328 37V3.4H32.328V37H36.328ZM34.328 1.4H25.016V5.4H34.328V1.4ZM50.4399 29.656H48.4399V31.656H50.4399V29.656ZM50.4399 23.512V21.512H48.4399V23.512H50.4399ZM65.3679 23.512V25.512H67.3679V23.512H65.3679ZM65.3679 16.408H67.3679V14.408H65.3679V16.408ZM50.4399 16.408H48.4399V18.408H50.4399V16.408ZM50.4399 10.744V8.744H48.4399V10.744H50.4399ZM67.3839 10.744V12.744H69.3839V10.744H67.3839ZM67.3839 3.4H69.3839V1.4H67.3839V3.4ZM41.0319 3.4V1.4H39.0319V3.4H41.0319ZM41.0319 37H39.0319V39H41.0319V37ZM68.0079 37V39H70.0079V37H68.0079ZM68.0079 29.656H70.0079V27.656H68.0079V29.656ZM52.4399 29.656V23.512H48.4399V29.656H52.4399ZM50.4399 25.512H65.3679V21.512H50.4399V25.512ZM67.3679 23.512V16.408H63.3679V23.512H67.3679ZM65.3679 14.408H50.4399V18.408H65.3679V14.408ZM52.4399 16.408V10.744H48.4399V16.408H52.4399ZM50.4399 12.744H67.3839V8.744H50.4399V12.744ZM69.3839 10.744V3.4H65.3839V10.744H69.3839ZM67.3839 1.4H41.0319V5.4H67.3839V1.4ZM39.0319 3.4V37H43.0319V3.4H39.0319ZM41.0319 39H68.0079V35H41.0319V39ZM70.0079 37V29.656H66.0079V37H70.0079ZM68.0079 27.656H50.4399V31.656H68.0079V27.656ZM116.445 3.4V1.4H114.993L114.544 2.7802L116.445 3.4ZM109.389 25.048L107.48 25.6448L109.349 31.6236L111.291 25.6678L109.389 25.048ZM102.621 3.4L104.53 2.80321L104.091 1.4H102.621V3.4ZM93.8851 3.4V1.4H92.4405L91.9865 2.77137L93.8851 3.4ZM86.7811 24.856L84.8738 25.4576L86.735 31.3582L88.6798 25.4846L86.7811 24.856ZM80.0131 3.4L81.9205 2.79835L81.4794 1.4H80.0131V3.4ZM70.2211 3.4V1.4H67.47L68.3187 4.01694L70.2211 3.4ZM81.1171 37L79.2147 37.6169L79.6632 39H81.1171V37ZM91.2931 37V39H92.7411L93.1932 37.6244L91.2931 37ZM98.0131 16.552L99.921 15.9519L98.0548 10.0192L96.1131 15.9276L98.0131 16.552ZM104.445 37L102.537 37.6001L102.978 39H104.445V37ZM114.621 37V39H116.075L116.524 37.6169L114.621 37ZM125.517 3.4L127.42 4.01694L128.268 1.4H125.517V3.4ZM114.544 2.7802L107.488 24.4282L111.291 25.6678L118.347 4.01979L114.544 2.7802ZM111.298 24.4512L104.53 2.80321L100.712 3.99679L107.48 25.6448L111.298 24.4512ZM102.621 1.4H93.8851V5.4H102.621V1.4ZM91.9865 2.77137L84.8825 24.2274L88.6798 25.4846L95.7838 4.02863L91.9865 2.77137ZM88.6885 24.2543L81.9205 2.79835L78.1058 4.00165L84.8738 25.4576L88.6885 24.2543ZM80.0131 1.4H70.2211V5.4H80.0131V1.4ZM68.3187 4.01694L79.2147 37.6169L83.0196 36.3831L72.1236 2.78305L68.3187 4.01694ZM81.1171 39H91.2931V35H81.1171V39ZM93.1932 37.6244L99.9132 17.1764L96.1131 15.9276L89.3931 36.3756L93.1932 37.6244ZM96.1053 17.1521L102.537 37.6001L106.353 36.3999L99.921 15.9519L96.1053 17.1521ZM104.445 39H114.621V35H104.445V39ZM116.524 37.6169L127.42 4.01694L123.615 2.78305L112.719 36.3831L116.524 37.6169ZM125.517 1.4H116.445V5.4H125.517V1.4ZM138.331 29.656H136.331V31.656H138.331V29.656ZM138.331 23.512V21.512H136.331V23.512H138.331ZM153.258 23.512V25.512H155.258V23.512H153.258ZM153.258 16.408H155.258V14.408H153.258V16.408ZM138.331 16.408H136.331V18.408H138.331V16.408ZM138.331 10.744V8.744H136.331V10.744H138.331ZM155.275 10.744V12.744H157.275V10.744H155.275ZM155.275 3.4H157.275V1.4H155.275V3.4ZM128.923 3.4V1.4H126.923V3.4H128.923ZM128.923 37H126.923V39H128.923V37ZM155.898 37V39H157.898V37H155.898ZM155.898 29.656H157.898V27.656H155.898V29.656ZM140.331 29.656V23.512H136.331V29.656H140.331ZM138.331 25.512H153.258V21.512H138.331V25.512ZM155.258 23.512V16.408H151.258V23.512H155.258ZM153.258 14.408H138.331V18.408H153.258V14.408ZM140.331 16.408V10.744H136.331V16.408H140.331ZM138.331 12.744H155.275V8.744H138.331V12.744ZM157.275 10.744V3.4H153.275V10.744H157.275ZM155.275 1.4H128.923V5.4H155.275V1.4ZM126.923 3.4V37H130.923V3.4H126.923ZM128.923 39H155.898V35H128.923V39ZM157.898 37V29.656H153.898V37H157.898ZM155.898 27.656H138.331V31.656H155.898V27.656ZM183.54 12.712L182.594 14.4738L184.541 15.5198L185.388 13.4785L183.54 12.712ZM186.469 5.656L188.316 6.42255L188.987 4.80438L187.472 3.92572L186.469 5.656ZM161.941 26.968L163.044 25.2998L161.074 23.9972L160.113 26.1546L161.941 26.968ZM158.82 33.976L156.993 33.1626L156.321 34.672L157.677 35.6168L158.82 33.976ZM172.98 39.672C178.289 39.672 182.493 38.345 185.415 36.005C188.368 33.6393 189.861 30.3493 189.861 26.824H185.861C185.861 29.1547 184.905 31.2887 182.914 32.883C180.892 34.503 177.656 35.672 172.98 35.672V39.672ZM189.861 26.824C189.861 23.1184 188.393 20.4717 186.15 18.6364C184.013 16.8884 181.278 15.9609 178.832 15.3295C177.595 15.01 176.356 14.7492 175.26 14.5101C174.136 14.2649 173.175 14.0454 172.376 13.797C171.551 13.5404 171.09 13.3078 170.861 13.1278C170.765 13.0514 170.759 13.0223 170.776 13.0536C170.785 13.0692 170.793 13.0903 170.799 13.1134C170.805 13.1362 170.805 13.1483 170.805 13.144H166.805C166.805 14.528 167.495 15.5672 168.385 16.2692C169.199 16.9105 170.226 17.3174 171.188 17.6165C172.176 17.9238 173.299 18.1765 174.408 18.4182C175.545 18.6661 176.688 18.907 177.833 19.2025C180.151 19.8011 182.18 20.5566 183.616 21.7321C184.946 22.8203 185.861 24.3376 185.861 26.824H189.861ZM170.805 13.144C170.805 12.9774 170.824 12.8627 171.096 12.6893C171.493 12.4368 172.407 12.12 174.229 12.12V8.12C172.066 8.12 170.268 8.47523 168.949 9.31468C167.505 10.2333 166.805 11.6306 166.805 13.144H170.805ZM174.229 12.12C176.764 12.12 179.609 12.87 182.594 14.4738L184.487 10.9502C181.04 9.09803 177.549 8.12 174.229 8.12V12.12ZM185.388 13.4785L188.316 6.42255L184.621 4.88944L181.693 11.9454L185.388 13.4785ZM187.472 3.92572C183.784 1.78826 178.905 0.727997 174.277 0.727997V4.728C178.384 4.728 182.529 5.68374 185.465 7.38628L187.472 3.92572ZM174.277 0.727997C168.977 0.727997 164.771 2.02658 161.844 4.36315C158.88 6.73024 157.396 10.0379 157.396 13.624H161.396C161.396 11.2101 162.361 9.06976 164.34 7.48885C166.358 5.87741 169.592 4.728 174.277 4.728V0.727997ZM157.396 13.624C157.396 17.35 158.864 20.0106 161.111 21.8591C163.25 23.6198 165.991 24.5574 168.441 25.2004C169.679 25.5256 170.921 25.7937 172.017 26.0401C173.142 26.2931 174.103 26.5211 174.9 26.779C175.721 27.0451 176.182 27.2865 176.412 27.4751C176.51 27.5555 176.523 27.5921 176.514 27.5744C176.5 27.5467 176.501 27.5242 176.501 27.544H180.501C180.501 26.1653 179.838 25.1106 178.947 24.3809C178.133 23.7136 177.101 23.2872 176.131 22.9735C175.137 22.6516 174.008 22.388 172.895 22.1376C171.752 21.8806 170.606 21.6334 169.456 21.3316C167.13 20.7206 165.095 19.9572 163.652 18.7704C162.317 17.6714 161.396 16.138 161.396 13.624H157.396ZM176.501 27.544C176.501 27.6264 176.485 27.6289 176.497 27.6097C176.505 27.5964 176.472 27.6648 176.279 27.7701C175.84 28.0109 174.872 28.28 173.029 28.28V32.28C175.121 32.28 176.889 31.9971 178.202 31.278C179.668 30.4743 180.501 29.1459 180.501 27.544H176.501ZM173.029 28.28C169.541 28.28 165.7 27.0561 163.044 25.2998L160.837 28.6362C164.133 30.8159 168.74 32.28 173.029 32.28V28.28ZM160.113 26.1546L156.993 33.1626L160.648 34.7894L163.768 27.7814L160.113 26.1546ZM157.677 35.6168C161.278 38.127 167.19 39.672 172.98 39.672V35.672C167.731 35.672 162.699 34.241 159.964 32.3352L157.677 35.6168ZM198.934 37H196.934V39H198.934V37ZM208.438 37V39H210.438V37H208.438ZM208.438 10.936V8.936H206.438V10.936H208.438ZM218.71 10.936V12.936H220.71V10.936H218.71ZM218.71 3.4H220.71V1.4H218.71V3.4ZM188.614 3.4V1.4H186.614V3.4H188.614ZM188.614 10.936H186.614V12.936H188.614V10.936ZM198.934 10.936H200.934V8.936H198.934V10.936ZM198.934 39H208.438V35H198.934V39ZM210.438 37V10.936H206.438V37H210.438ZM208.438 12.936H218.71V8.936H208.438V12.936ZM220.71 10.936V3.4H216.71V10.936H220.71ZM218.71 1.4H188.614V5.4H218.71V1.4ZM186.614 3.4V10.936H190.614V3.4H186.614ZM188.614 12.936H198.934V8.936H188.614V12.936ZM196.934 10.936V37H200.934V10.936H196.934ZM258.587 12.712L257.641 14.4738L259.588 15.5198L260.435 13.4785L258.587 12.712ZM261.515 5.656L263.363 6.42255L264.034 4.80438L262.518 3.92572L261.515 5.656ZM236.987 26.968L238.091 25.2998L236.121 23.9972L235.16 26.1546L236.987 26.968ZM233.867 33.976L232.04 33.1626L231.368 34.672L232.724 35.6168L233.867 33.976ZM248.027 39.672C253.336 39.672 257.54 38.345 260.462 36.005C263.415 33.6393 264.907 30.3493 264.907 26.824H260.907C260.907 29.1547 259.952 31.2887 257.961 32.883C255.938 34.503 252.703 35.672 248.027 35.672V39.672ZM264.907 26.824C264.907 23.1184 263.44 20.4717 261.196 18.6364C259.06 16.8884 256.325 15.9609 253.879 15.3295C252.642 15.01 251.403 14.7492 250.307 14.5101C249.182 14.2649 248.222 14.0454 247.423 13.797C246.598 13.5404 246.137 13.3078 245.908 13.1278C245.811 13.0514 245.806 13.0223 245.823 13.0536C245.831 13.0692 245.84 13.0903 245.846 13.1134C245.852 13.1362 245.851 13.1483 245.851 13.144H241.851C241.851 14.528 242.542 15.5672 243.432 16.2692C244.246 16.9105 245.273 17.3174 246.235 17.6165C247.223 17.9238 248.346 18.1765 249.455 18.4182C250.591 18.6661 251.735 18.907 252.879 19.2025C255.198 19.8011 257.227 20.5566 258.663 21.7321C259.993 22.8203 260.907 24.3376 260.907 26.824H264.907ZM245.851 13.144C245.851 12.9774 245.871 12.8627 246.143 12.6893C246.54 12.4368 247.454 12.12 249.275 12.12V8.12C247.113 8.12 245.315 8.47523 243.996 9.31468C242.552 10.2333 241.851 11.6306 241.851 13.144H245.851ZM249.275 12.12C251.811 12.12 254.656 12.87 257.641 14.4738L259.534 10.9502C256.087 9.09803 252.596 8.12 249.275 8.12V12.12ZM260.435 13.4785L263.363 6.42255L259.668 4.88944L256.74 11.9454L260.435 13.4785ZM262.518 3.92572C258.831 1.78826 253.952 0.727997 249.323 0.727997V4.728C253.43 4.728 257.575 5.68374 260.512 7.38628L262.518 3.92572ZM249.323 0.727997C244.024 0.727997 239.817 2.02658 236.891 4.36315C233.927 6.73024 232.443 10.0379 232.443 13.624H236.443C236.443 11.2101 237.408 9.06976 239.387 7.48885C241.405 5.87741 244.638 4.728 249.323 4.728V0.727997ZM232.443 13.624C232.443 17.35 233.911 20.0106 236.158 21.8591C238.297 23.6198 241.038 24.5574 243.487 25.2004C244.726 25.5256 245.968 25.7937 247.064 26.0401C248.189 26.2931 249.15 26.5211 249.946 26.779C250.768 27.0451 251.229 27.2865 251.459 27.4751C251.557 27.5555 251.57 27.5921 251.561 27.5744C251.546 27.5467 251.547 27.5242 251.547 27.544H255.547C255.547 26.1653 254.885 25.1106 253.994 24.3809C253.179 23.7136 252.148 23.2872 251.178 22.9735C250.184 22.6516 249.055 22.388 247.942 22.1376C246.799 21.8806 245.653 21.6334 244.503 21.3316C242.177 20.7206 240.141 19.9572 238.699 18.7704C237.364 17.6714 236.443 16.138 236.443 13.624H232.443ZM251.547 27.544C251.547 27.6264 251.532 27.6289 251.544 27.6097C251.552 27.5964 251.518 27.6648 251.326 27.7701C250.887 28.0109 249.918 28.28 248.075 28.28V32.28C250.168 32.28 251.936 31.9971 253.248 31.278C254.715 30.4743 255.547 29.1459 255.547 27.544H251.547ZM248.075 28.28C244.588 28.28 240.746 27.0561 238.091 25.2998L235.884 28.6362C239.18 30.8159 243.787 32.28 248.075 32.28V28.28ZM235.16 26.1546L232.04 33.1626L235.694 34.7894L238.814 27.7814L235.16 26.1546ZM232.724 35.6168C236.325 38.127 242.237 39.672 248.027 39.672V35.672C242.778 35.672 237.745 34.241 235.011 32.3352L232.724 35.6168ZM289.762 3.4V1.4H287.762V3.4H289.762ZM289.762 16.024V18.024H291.762V16.024H289.762ZM276.802 16.024H274.802V18.024H276.802V16.024ZM276.802 3.4H278.802V1.4H276.802V3.4ZM267.297 3.4V1.4H265.297V3.4H267.297ZM267.297 37H265.297V39H267.297V37ZM276.802 37V39H278.802V37H276.802ZM276.802 23.896V21.896H274.802V23.896H276.802ZM289.762 23.896H291.762V21.896H289.762V23.896ZM289.762 37H287.762V39H289.762V37ZM299.266 37V39H301.266V37H299.266ZM299.266 3.4H301.266V1.4H299.266V3.4ZM287.762 3.4V16.024H291.762V3.4H287.762ZM289.762 14.024H276.802V18.024H289.762V14.024ZM278.802 16.024V3.4H274.802V16.024H278.802ZM276.802 1.4H267.297V5.4H276.802V1.4ZM265.297 3.4V37H269.297V3.4H265.297ZM267.297 39H276.802V35H267.297V39ZM278.802 37V23.896H274.802V37H278.802ZM276.802 25.896H289.762V21.896H276.802V25.896ZM287.762 23.896V37H291.762V23.896H287.762ZM289.762 39H299.266V35H289.762V39ZM301.266 37V3.4H297.266V37H301.266ZM299.266 1.4H289.762V5.4H299.266V1.4ZM322.913 39.672C334.641 39.672 343.585 31.509 343.585 20.2H339.585C339.585 29.051 332.69 35.672 322.913 35.672V39.672ZM343.585 20.2C343.585 8.89098 334.641 0.727997 322.913 0.727997V4.728C332.69 4.728 339.585 11.349 339.585 20.2H343.585ZM322.913 0.727997C311.186 0.727997 302.241 8.89098 302.241 20.2H306.241C306.241 11.349 313.137 4.728 322.913 4.728V0.727997ZM302.241 20.2C302.241 31.509 311.186 39.672 322.913 39.672V35.672C313.137 35.672 306.241 29.051 306.241 20.2H302.241ZM322.913 27.8C318.978 27.8 315.841 24.9516 315.841 20.2H311.841C311.841 27.0644 316.673 31.8 322.913 31.8V27.8ZM315.841 20.2C315.841 15.4484 318.978 12.6 322.913 12.6V8.6C316.673 8.6 311.841 13.3356 311.841 20.2H315.841ZM322.913 12.6C326.849 12.6 329.985 15.4484 329.985 20.2H333.985C333.985 13.3356 329.154 8.6 322.913 8.6V12.6ZM329.985 20.2C329.985 24.9516 326.849 27.8 322.913 27.8V31.8C329.154 31.8 333.985 27.0644 333.985 20.2H329.985ZM355.971 29.656H353.971V31.656H355.971V29.656ZM355.971 23.512V21.512H353.971V23.512H355.971ZM370.899 23.512V25.512H372.899V23.512H370.899ZM370.899 16.408H372.899V14.408H370.899V16.408ZM355.971 16.408H353.971V18.408H355.971V16.408ZM355.971 10.744V8.744H353.971V10.744H355.971ZM372.915 10.744V12.744H374.915V10.744H372.915ZM372.915 3.4H374.915V1.4H372.915V3.4ZM346.563 3.4V1.4H344.563V3.4H346.563ZM346.563 37H344.563V39H346.563V37ZM373.539 37V39H375.539V37H373.539ZM373.539 29.656H375.539V27.656H373.539V29.656ZM357.971 29.656V23.512H353.971V29.656H357.971ZM355.971 25.512H370.899V21.512H355.971V25.512ZM372.899 23.512V16.408H368.899V23.512H372.899ZM370.899 14.408H355.971V18.408H370.899V14.408ZM357.971 16.408V10.744H353.971V16.408H357.971ZM355.971 12.744H372.915V8.744H355.971V12.744ZM374.915 10.744V3.4H370.915V10.744H374.915ZM372.915 1.4H346.563V5.4H372.915V1.4ZM344.563 3.4V37H348.563V3.4H344.563ZM346.563 39H373.539V35H346.563V39ZM375.539 37V29.656H371.539V37H375.539ZM373.539 27.656H355.971V31.656H373.539V27.656ZM401.181 12.712L400.234 14.4738L402.181 15.5198L403.028 13.4785L401.181 12.712ZM404.109 5.656L405.956 6.42255L406.628 4.80438L405.112 3.92572L404.109 5.656ZM379.581 26.968L380.684 25.2998L378.715 23.9972L377.754 26.1546L379.581 26.968ZM376.461 33.976L374.634 33.1626L373.962 34.672L375.318 35.6168L376.461 33.976ZM390.621 39.672C395.929 39.672 400.134 38.345 403.055 36.005C406.009 33.6393 407.501 30.3493 407.501 26.824H403.501C403.501 29.1547 402.545 31.2887 400.555 32.883C398.532 34.503 395.297 35.672 390.621 35.672V39.672ZM407.501 26.824C407.501 23.1184 406.033 20.4717 403.79 18.6364C401.654 16.8884 398.919 15.9609 396.473 15.3295C395.236 15.01 393.997 14.7492 392.901 14.5101C391.776 14.2649 390.815 14.0454 390.017 13.797C389.192 13.5404 388.73 13.3078 388.502 13.1278C388.405 13.0514 388.4 13.0223 388.417 13.0536C388.425 13.0692 388.434 13.0903 388.44 13.1134C388.445 13.1362 388.445 13.1483 388.445 13.144H384.445C384.445 14.528 385.135 15.5672 386.026 16.2692C386.84 16.9105 387.867 17.3174 388.829 17.6165C389.816 17.9238 390.94 18.1765 392.048 18.4182C393.185 18.6661 394.329 18.907 395.473 19.2025C397.792 19.8011 399.82 20.5566 401.257 21.7321C402.587 22.8203 403.501 24.3376 403.501 26.824H407.501ZM388.445 13.144C388.445 12.9774 388.465 12.8627 388.737 12.6893C389.134 12.4368 390.047 12.12 391.869 12.12V8.12C389.707 8.12 387.909 8.47523 386.589 9.31468C385.146 10.2333 384.445 11.6306 384.445 13.144H388.445ZM391.869 12.12C394.405 12.12 397.25 12.87 400.234 14.4738L402.128 10.9502C398.681 9.09803 395.189 8.12 391.869 8.12V12.12ZM403.028 13.4785L405.956 6.42255L402.262 4.88944L399.334 11.9454L403.028 13.4785ZM405.112 3.92572C401.425 1.78826 396.546 0.727997 391.917 0.727997V4.728C396.024 4.728 400.169 5.68374 403.106 7.38628L405.112 3.92572ZM391.917 0.727997C386.618 0.727997 382.411 2.02658 379.485 4.36315C376.521 6.73024 375.037 10.0379 375.037 13.624H379.037C379.037 11.2101 380.001 9.06976 381.981 7.48885C383.999 5.87741 387.232 4.728 391.917 4.728V0.727997ZM375.037 13.624C375.037 17.35 376.505 20.0106 378.751 21.8591C380.891 23.6198 383.632 24.5574 386.081 25.2004C387.319 25.5256 388.562 25.7937 389.658 26.0401C390.783 26.2931 391.743 26.5211 392.54 26.779C393.362 27.0451 393.823 27.2865 394.053 27.4751C394.151 27.5555 394.164 27.5921 394.155 27.5744C394.14 27.5467 394.141 27.5242 394.141 27.544H398.141C398.141 26.1653 397.478 25.1106 396.588 24.3809C395.773 23.7136 394.741 23.2872 393.772 22.9735C392.778 22.6516 391.649 22.388 390.535 22.1376C389.392 21.8806 388.247 21.6334 387.097 21.3316C384.77 20.7206 382.735 19.9572 381.293 18.7704C379.957 17.6714 379.037 16.138 379.037 13.624H375.037ZM394.141 27.544C394.141 27.6264 394.126 27.6289 394.138 27.6097C394.146 27.5964 394.112 27.6648 393.92 27.7701C393.48 28.0109 392.512 28.28 390.669 28.28V32.28C392.762 32.28 394.53 31.9971 395.842 31.278C397.309 30.4743 398.141 29.1459 398.141 27.544H394.141ZM390.669 28.28C387.182 28.28 383.34 27.0561 380.684 25.2998L378.478 28.6362C381.774 30.8159 386.38 32.28 390.669 32.28V28.28ZM377.754 26.1546L374.634 33.1626L378.288 34.7894L381.408 27.7814L377.754 26.1546ZM375.318 35.6168C378.919 38.127 384.831 39.672 390.621 39.672V35.672C385.372 35.672 380.339 34.241 377.605 32.3352L375.318 35.6168Z" fill="white"/>
</svg>
