<svg width="137" height="62" viewBox="0 0 137 62" fill="none" xmlns="http://www.w3.org/2000/svg">
<path d="M26.12 0.399998V20.8L9.416 0.399998H2.984V34H10.664V13.6L27.416 34H33.8V0.399998H26.12ZM41.7496 34H49.5256V0.399998H41.7496V34ZM80.4916 34H89.5636L74.8276 15.376L88.7476 0.399998H80.1076L65.2276 16.096V0.399998H57.4996V34H65.2276V25.504L69.7396 20.8L80.4916 34ZM100.759 27.76V19.984H116.359V13.936H100.759V6.64H118.423V0.399998H93.0309V34H119.047V27.76H100.759ZM9.768 61L7.032 57.16C8.664 56.632 9.592 55.4 9.592 53.64C9.592 51.24 7.864 49.8 5.016 49.8H0.824V61H2.008V57.448H5.016C5.336 57.448 5.624 57.432 5.912 57.4L8.472 61H9.768ZM4.984 56.44H2.008V50.824H4.984C7.224 50.824 8.408 51.848 8.408 53.64C8.408 55.4 7.224 56.44 4.984 56.44ZM18.4985 61.096C21.3625 61.096 23.0905 59.432 23.0905 56.216V49.8H21.9385V56.168C21.9385 58.824 20.6905 60.04 18.4985 60.04C16.3225 60.04 15.0745 58.824 15.0745 56.168V49.8H13.8905V56.216C13.8905 59.432 15.6345 61.096 18.4985 61.096ZM36.4504 49.8V58.888L29.2344 49.8H28.2584V61H29.4424V51.912L36.6424 61H37.6184V49.8H36.4504ZM51.066 49.8V58.888L43.85 49.8H42.874V61H44.058V51.912L51.258 61H52.234V49.8H51.066ZM58.6736 59.976V55.816H64.4656V54.808H58.6736V50.824H65.1696V49.8H57.4896V61H65.4096V59.976H58.6736ZM78.7368 61L76.0008 57.16C77.6328 56.632 78.5608 55.4 78.5608 53.64C78.5608 51.24 76.8328 49.8 73.9848 49.8H69.7928V61H70.9768V57.448H73.9848C74.3048 57.448 74.5928 57.432 74.8808 57.4L77.4408 61H78.7368ZM73.9528 56.44H70.9768V50.824H73.9528C76.1927 50.824 77.3767 51.848 77.3767 53.64C77.3767 55.4 76.1927 56.44 73.9528 56.44ZM87.8192 61.096C89.4672 61.096 90.9392 60.536 91.9312 59.448L91.1792 58.696C90.2672 59.64 89.1472 60.04 87.8672 60.04C85.1632 60.04 83.1312 58.056 83.1312 55.4C83.1312 52.744 85.1632 50.76 87.8672 50.76C89.1472 50.76 90.2672 51.16 91.1792 52.088L91.9312 51.336C90.9392 50.248 89.4672 49.704 87.8352 49.704C84.4592 49.704 81.9632 52.12 81.9632 55.4C81.9632 58.68 84.4592 61.096 87.8192 61.096ZM96.0552 61H103.511V59.976H97.2392V49.8H96.0552V61ZM107.077 61H108.261V49.8H107.077V61ZM118.369 61.096C120.017 61.096 121.489 60.536 122.481 59.448L121.729 58.696C120.817 59.64 119.697 60.04 118.417 60.04C115.713 60.04 113.681 58.056 113.681 55.4C113.681 52.744 115.713 50.76 118.417 50.76C119.697 50.76 120.817 51.16 121.729 52.088L122.481 51.336C121.489 50.248 120.017 49.704 118.385 49.704C115.009 49.704 112.513 52.12 112.513 55.4C112.513 58.68 115.009 61.096 118.369 61.096ZM134.653 61H136.061L130.877 54.872L135.725 49.8H134.365L127.789 56.568V49.8H126.605V61H127.789V58.056L130.077 55.736L134.653 61Z" fill="#283664"/>
</svg>
